# xmcd
#
# Track frame offsets: 
#        150
#        23200
#        44212
#        62138
#        76364
#        91742
#        106892
#        122854
#        137436
#        159919
#        175957
#        192186
#
# Disc length: 3107 seconds
#
# Revision: 0
# Processed by: cddbd v1.5.2PL0 Copyright (c) Steve Scherf et al.
# Submitted via: ExactAudioCopy v0.99pb5
#
DISCID=9a0c210c
DTITLE=Various Artist - Spex-CD No. 107
DYEAR=2013
DGENRE=Indie-Pop/Folk-Pop/Breitwand-Folk/Punk-Pop/Schrammel-Rock/Trash
TTITLE0=Apparat - A violent Sky
TTITLE1=Ducktails - Sedan Magic
TTITLE2=Amatorski - Peaceful
TTITLE3=Darwin Deez - Free (The Editorial Me)
TTITLE4=PVT - Nightfall
TTITLE5=New Found Land - Mirror
TTITLE6=Candelilla - 22
TTITLE7=Neustadt - Du und Ich
TTITLE8=Arbouretum - World split Open
TTITLE9=Indoor Life - Gilmore of the Fillmore
TTITLE10=Schorsch Kamerun - Ich meine ich weine
TTITLE11=Fennesz - Fa 2012
EXTD=
EXTT0=
EXTT1=
EXTT2=
EXTT3=
EXTT4=
EXTT5=
EXTT6=
EXTT7=
EXTT8=
EXTT9=
EXTT10=
EXTT11=
PLAYORDER=
